<?xml version="1.0" encoding="utf-8"?>
<!-- Generator: Adobe Illustrator 19.0.0, SVG Export Plug-In . SVG Version: 6.00 Build 0)  -->
<svg version="1.1" id="Layer_1" xmlns="http://www.w3.org/2000/svg" xmlns:xlink="http://www.w3.org/1999/xlink" x="0px" y="0px"
	 viewBox="27.3 -13.3 46 61.7" style="enable-background:new 27.3 -13.3 46 61.7;" xml:space="preserve">
<title>Artboard 14</title>
<path d="M69.8,25.8c-0.9-1-2.5-1.1-3.5-0.1c0,0,0,0,0,0l-13.8,13V-4.5C52.5-5.9,51.4-7,50-7s-2.5,1.1-2.5,2.5v43.2L33.7,25.7
	c-1-0.9-2.6-0.9-3.5,0.1c-0.9,1-0.9,2.6,0.1,3.5l15.6,14.8c1.9,2.3,5.3,2.5,7.5,0.6c0.2-0.2,0.4-0.4,0.6-0.6l15.6-14.8
	C70.7,28.3,70.8,26.8,69.8,25.8z"/>
</svg>
