<?xml version="1.0" encoding="utf-8"?>
<!-- Generator: Adobe Illustrator 19.0.0, SVG Export Plug-In . SVG Version: 6.00 Build 0)  -->
<svg version="1.1" id="Layer_1" xmlns="http://www.w3.org/2000/svg" xmlns:xlink="http://www.w3.org/1999/xlink" x="0px" y="0px"
	 viewBox="-265 357 80 80" style="enable-background:new -265 357 80 80;" xml:space="preserve">
<g>
	<path d="M-188.6,388.1c-0.3-0.9-1.1-1.6-2-1.7l-22.2-3.2l-9.9-20.1c-0.6-1.2-2.1-1.8-3.3-1.2c-0.5,0.2-0.9,0.7-1.2,1.2l-9.9,20.1
		l-22.2,3.2c-1.4,0.2-2.3,1.4-2.1,2.8c0.1,0.6,0.3,1.1,0.7,1.5l16.1,15.6l-3.7,22.1c-0.2,1.4,0.7,2.6,2.1,2.8c0.5,0.1,1,0,1.5-0.2
		l19.9-10.4l19.9,10.4c1.2,0.6,2.7,0.2,3.4-1.1c0.3-0.5,0.3-1,0.2-1.6l-3.8-22.1l16.1-15.6C-188.5,390-188.3,389-188.6,388.1z"/>
</g>
</svg>
